<?xml version="1.0" encoding="utf-8"?>
<!-- Generator: Adobe Illustrator 28.4.1, SVG Export Plug-In . SVG Version: 6.00 Build 0)  -->
<svg version="1.1" id="Layer_1" xmlns="http://www.w3.org/2000/svg" xmlns:xlink="http://www.w3.org/1999/xlink" x="0px" y="0px"
	 viewBox="0 0 280 280" style="enable-background:new 0 0 280 280;" xml:space="preserve">
<style type="text/css">
	.st0{fill:#FFFFFF;}
	.st1{fill-rule:evenodd;clip-rule:evenodd;fill:#FFFFFF;}
</style>
<path class="st0" d="M69,186.2h141.3v61.5H69V186.2z"/>
<path class="st0" d="M215.3,199.1c0-20.2-8-39.6-22.1-53.9s-33.4-22.3-53.4-22.3c-20,0-39.3,8-53.4,22.3
	c-14.2,14.3-22.1,33.7-22.1,53.9h75.6H215.3z"/>
<path class="st1" d="M140,218.2c43.3,0,78.4-35.1,78.4-78.4c0-43.3-35.1-78.4-78.4-78.4c-43.3,0-78.4,35.1-78.4,78.4
	C61.6,183.1,96.7,218.2,140,218.2z M140,279.6c77.2,0,139.8-62.6,139.8-139.8C279.8,62.6,217.2,0,140,0S0.2,62.6,0.2,139.8
	C0.2,217,62.8,279.6,140,279.6z"/>
</svg>
